<?xml version="1.0" standalone="no"?>
<!DOCTYPE svg PUBLIC "-//W3C//DTD SVG 1.1//EN" "http://www.w3.org/Graphics/SVG/1.1/DTD/svg11.dtd">
<svg width="100%" height="100%" viewBox="0 0 510 134" version="1.1" xmlns="http://www.w3.org/2000/svg" xmlns:xlink="http://www.w3.org/1999/xlink" xml:space="preserve" style="fill-rule:evenodd;clip-rule:evenodd;stroke-linejoin:round;stroke-miterlimit:1.41421;">
    <g id="Calque 1" transform="matrix(4.16667,0,0,4.16667,-198.749,-374.543)">
        <path d="M111.905,114.168C109.933,115.508 107.24,114.994 105.899,113.022C104.558,111.05 105.073,108.356 107.045,107.013C109.016,105.673 111.71,106.188 113.051,108.16C114.393,110.131 113.879,112.826 111.905,114.168M114.581,107.12C112.666,104.298 108.824,103.568 106.005,105.485C103.184,107.402 102.452,111.243 104.37,114.062C106.066,116.56 109.269,117.416 111.937,116.253L114.326,120.133L116.222,118.845L113.834,114.965C115.898,112.912 116.28,109.615 114.581,107.12" style="fill:rgb(7,7,7);"/>
        <path d="M165.305,116.398L163.829,116.398C163.829,104.509 154.019,94.837 141.962,94.837L141.962,93.361C154.834,93.361 165.305,103.693 165.305,116.398" style="fill:rgb(73,156,210);fill-rule:nonzero;"/>
        <path d="M166.325,108.468C164.554,101.01 158.51,94.785 150.932,92.609L151.272,91.426C159.27,93.723 165.649,100.299 167.521,108.183L166.325,108.468Z" style="fill:rgb(72,156,210);fill-rule:nonzero;"/>
        <path d="M167.987,101.469C166.161,97.487 163.047,94.014 159.226,91.691L159.737,90.85C163.727,93.276 166.972,96.899 168.88,101.058L167.987,101.469Z" style="fill:rgb(72,156,210);fill-rule:nonzero;"/>
        <g transform="matrix(0.24,0,0,0.24,7.44816,-9.11175)">
            <path d="M172.015,520.334C175.715,522.334 181.415,523.834 187.815,523.834C201.815,523.834 208.915,517.134 208.915,507.934C208.815,500.834 205.015,496.134 195.715,492.934C189.715,490.934 187.815,489.634 187.815,487.334C187.815,484.934 189.915,483.434 193.615,483.434C197.715,483.434 202.015,485.034 204.215,486.134L206.815,475.734C203.815,474.234 198.815,472.834 193.115,472.834C181.015,472.834 173.215,479.734 173.215,488.934C173.115,494.634 177.015,500.134 187.215,503.534C192.815,505.334 194.315,506.634 194.315,509.134C194.315,511.634 192.415,513.134 187.815,513.134C183.315,513.134 177.515,511.234 174.715,509.534L172.015,520.334Z" style="fill:rgb(7,7,7);fill-rule:nonzero;"/>
            <path d="M235.815,523.934C248.815,523.934 261.515,515.734 261.515,497.934C261.515,483.134 251.515,472.834 236.615,472.834C220.815,472.834 210.415,482.934 210.415,498.734C210.415,514.534 221.415,523.934 235.715,523.934L235.815,523.934ZM236.015,513.034C229.615,513.034 226.115,506.734 226.115,498.434C226.115,491.134 228.915,483.734 236.115,483.734C243.015,483.734 245.815,491.134 245.815,498.334C245.815,507.134 242.115,513.034 236.115,513.034L236.015,513.034Z" style="fill:rgb(7,7,7);fill-rule:nonzero;"/>
            <path d="M265.915,522.834L281.115,522.834L281.115,494.634C281.115,493.234 281.215,491.834 281.615,490.834C282.715,488.034 285.215,485.134 289.415,485.134C294.915,485.134 297.115,489.434 297.115,495.734L297.115,522.834L312.315,522.834L312.315,493.934C312.315,479.534 304.815,472.834 294.815,472.834C286.615,472.834 281.715,477.534 279.715,480.734L279.415,480.734L278.715,473.934L265.515,473.934C265.715,478.334 265.915,483.434 265.915,489.534L265.915,522.834Z" style="fill:rgb(7,7,7);fill-rule:nonzero;"/>
            <path d="M360.215,493.934C360.215,482.434 355.115,472.834 338.815,472.834C329.915,472.834 323.215,475.334 319.815,477.234L322.615,486.934C325.815,485.034 331.115,483.334 336.115,483.334C343.615,483.334 345.015,487.034 345.015,489.634L345.015,490.234C327.715,490.234 316.315,496.234 316.315,508.934C316.315,516.734 322.215,523.934 332.115,523.934C337.915,523.934 342.915,521.834 346.115,517.934L346.415,517.934L347.315,522.834L361.015,522.834C360.415,520.134 360.215,515.634 360.215,511.034L360.215,493.934ZM345.515,505.034C345.515,505.934 345.415,506.834 345.215,507.634C344.215,510.734 341.015,513.234 337.315,513.234C333.915,513.234 331.315,511.334 331.315,507.434C331.315,501.634 337.515,499.734 345.515,499.734L345.515,505.034Z" style="fill:rgb(7,7,7);fill-rule:nonzero;"/>
            <path d="M367.315,522.834L382.515,522.834L382.515,498.134C382.515,496.834 382.615,495.734 382.815,494.734C383.815,489.934 387.615,487.034 393.215,487.034C394.915,487.034 396.115,487.234 397.315,487.434L397.315,473.134C396.215,472.934 395.515,472.834 394.115,472.834C389.315,472.834 383.415,475.834 380.915,483.034L380.515,483.034L379.915,473.934L366.915,473.934C367.215,478.134 367.315,482.834 367.315,490.034L367.315,522.834Z" style="fill:rgb(7,7,7);fill-rule:nonzero;"/>
        </g>
        <g transform="matrix(0.24,0,0,0.24,-2.94141,5.65668)">
            <path d="M539.828,413.17L531.028,413.17L531.028,442.77C531.028,444.47 530.728,446.07 530.228,447.27C528.628,451.27 524.528,455.37 518.628,455.37C510.728,455.37 507.828,449.07 507.828,439.87L507.828,413.17L499.028,413.17L499.028,441.47C499.028,458.37 508.128,462.67 515.728,462.67C524.328,462.67 529.528,457.57 531.728,453.67L531.928,453.67L532.428,461.57L540.228,461.57C539.928,457.77 539.828,453.37 539.828,448.27L539.828,413.17Z" style="fill:rgb(7,7,7);fill-rule:nonzero;"/>
            <path d="M549.428,449.07C549.428,453.37 549.328,458.27 549.028,461.57L556.628,461.57L557.128,453.57L557.328,453.57C561.028,459.97 566.528,462.67 573.528,462.67C584.328,462.67 595.328,454.07 595.328,436.67C595.328,422.07 586.928,412.07 574.928,412.07C567.128,412.07 561.528,415.47 558.428,420.87L558.228,420.87L558.228,390.57L549.428,390.57L549.428,449.07ZM558.228,433.47C558.228,432.07 558.428,430.87 558.728,429.77C560.428,423.17 566.028,418.97 572.028,418.97C581.428,418.97 586.428,427.27 586.428,437.07C586.428,448.17 581.028,455.67 571.728,455.67C565.428,455.67 560.228,451.47 558.528,445.37C558.328,444.37 558.228,443.27 558.228,442.17L558.228,433.47Z" style="fill:rgb(7,7,7);fill-rule:nonzero;"/>
            <path d="M640.228,438.97C640.428,437.97 640.528,436.67 640.528,434.87C640.528,425.97 636.428,412.07 620.628,412.07C606.528,412.07 597.828,423.57 597.828,438.17C597.828,452.67 606.828,462.57 621.628,462.57C629.328,462.57 634.728,460.87 637.828,459.47L636.228,453.17C633.028,454.57 629.128,455.67 622.828,455.67C614.028,455.67 606.528,450.77 606.328,438.97L640.228,438.97ZM606.428,432.67C607.128,426.57 610.928,418.37 619.928,418.37C629.728,418.37 632.128,427.07 632.028,432.67L606.428,432.67Z" style="fill:rgb(7,7,7);fill-rule:nonzero;"/>
        </g>
    </g>
</svg>
